<svg xmlns="http://www.w3.org/2000/svg" version="1.1" viewBox="-5.0 -10.0 110.0 135.0">
 <path d="m84.805 51.473-14.582 14.582c-0.40625 0.40625-0.94141 0.60937-1.4727 0.60937s-1.0664-0.20312-1.4727-0.60937c-0.8125-0.8125-0.8125-2.1328 0-2.9453l11.027-11.027h-42.887c-1.1523 0-2.082-0.93359-2.082-2.082 0-1.1523 0.93359-2.082 2.082-2.082h42.887l-11.027-11.027c-0.8125-0.8125-0.8125-2.1328 0-2.9453s2.1328-0.8125 2.9453 0l14.582 14.582c0.81641 0.8125 0.81641 2.1328 0 2.9453zm-16.055 23.527c-1.1523 0-2.082 0.93359-2.082 2.082v2.082c0 2.3008-1.8633 4.168-4.168 4.168h-41.668c-2.3008 0-4.168-1.8672-4.168-4.168v-58.332c0-2.3008 1.8633-4.168 4.168-4.168h41.668c2.3008 0 4.168 1.8633 4.168 4.168v2.082c0 1.1523 0.93359 2.082 2.082 2.082s2.082-0.93359 2.082-2.082v-2.082c0-4.6016-3.7305-8.332-8.332-8.332h-41.668c-4.6016 0-8.332 3.7305-8.332 8.332v58.332c0 4.6016 3.7305 8.332 8.332 8.332l41.668 0.003906c4.6016 0 8.332-3.7305 8.332-8.332v-2.082c0-1.1523-0.92969-2.0859-2.082-2.0859z"/>
<text x="0.0" y="117.5" font-size="5.0" font-weight="bold" font-family="Arbeit Regular, Helvetica, Arial-Unicode, Arial, Sans-serif" fill="#000000">Created by Skena Grafis</text><text x="0.0" y="122.5" font-size="5.0" font-weight="bold" font-family="Arbeit Regular, Helvetica, Arial-Unicode, Arial, Sans-serif" fill="#000000">from Noun Project</text></svg>