<?xml version="1.0" standalone="no"?>
<!DOCTYPE svg PUBLIC "-//W3C//DTD SVG 20010904//EN"
 "http://www.w3.org/TR/2001/REC-SVG-20010904/DTD/svg10.dtd">
<svg version="1.0" xmlns="http://www.w3.org/2000/svg"
 width="220.000000pt" height="220.000000pt" viewBox="0 0 220.000000 220.000000"
 preserveAspectRatio="xMidYMid meet">

<g transform="translate(0.000000,220.000000) scale(0.100000,-0.100000)"
fill="#b32017" stroke="none">
<path d="M976 2089 c-95 -23 -213 -103 -276 -184 -90 -118 -110 -198 -110
-446 0 -96 5 -202 11 -235 33 -180 190 -349 368 -396 122 -31 264 -17 371 37
79 40 184 146 224 226 52 103 58 151 54 397 -4 197 -6 222 -27 274 -54 137
-164 253 -291 304 -54 23 -83 27 -175 30 -60 2 -127 -1 -149 -7z m231 -345
c68 -54 73 -75 73 -283 0 -178 -1 -186 -25 -227 -46 -78 -137 -111 -220 -80
-53 21 -112 83 -120 128 -4 18 -5 112 -3 209 3 175 3 176 31 212 43 57 90 78
164 74 52 -2 69 -8 100 -33z"/>
<path d="M590 460 l0 -150 515 0 515 0 0 150 0 150 -515 0 -515 0 0 -150z"/>
</g>
</svg>
